<?xml version="1.0" encoding="UTF-8" standalone="no"?>
<svg
   xmlns:dc="http://purl.org/dc/elements/1.1/"
   xmlns:cc="http://creativecommons.org/ns#"
   xmlns:rdf="http://www.w3.org/1999/02/22-rdf-syntax-ns#"
   xmlns:svg="http://www.w3.org/2000/svg"
   xmlns="http://www.w3.org/2000/svg"
   xmlns:sodipodi="http://sodipodi.sourceforge.net/DTD/sodipodi-0.dtd"
   xmlns:inkscape="http://www.inkscape.org/namespaces/inkscape"
   viewBox="0 0 60 30"
   width="1200"
   height="600"
   id="svg2"
   version="1.1"
   inkscape:version="0.48.2 r9819"
   sodipodi:docname="Flag_of_the_United_Kingdom2.svg">
  <metadata
     id="metadata21">
    <rdf:RDF>
      <cc:Work
         rdf:about="">
        <dc:format>image/svg+xml</dc:format>
        <dc:type
           rdf:resource="http://purl.org/dc/dcmitype/StillImage" />
        <dc:title></dc:title>
      </cc:Work>
    </rdf:RDF>
  </metadata>
  <defs
     id="defs19">
    <clipPath
       id="t-7">
      <path
         inkscape:connector-curvature="0"
         d="m 30,15 h 30 v 15 z m 0,0 V 30 H 0 z m 0,0 H 0 V 0 z m 0,0 V 0 h 30 z"
         id="path5-4" />
    </clipPath>
    <clipPath
       id="t-0">
      <path
         inkscape:connector-curvature="0"
         d="m 30,15 h 30 v 15 z m 0,0 V 30 H 0 z m 0,0 H 0 V 0 z m 0,0 V 0 h 30 z"
         id="path5-9" />
    </clipPath>
  </defs>
  <sodipodi:namedview
     pagecolor="#ffffff"
     bordercolor="#666666"
     borderopacity="1"
     objecttolerance="10"
     gridtolerance="10"
     guidetolerance="10"
     inkscape:pageopacity="0"
     inkscape:pageshadow="2"
     inkscape:window-width="1280"
     inkscape:window-height="738"
     id="namedview17"
     showgrid="false"
     inkscape:zoom="0.39333333"
     inkscape:cx="599.99999"
     inkscape:cy="300"
     inkscape:window-x="-8"
     inkscape:window-y="-8"
     inkscape:window-maximized="1"
     inkscape:current-layer="svg2" />
  <clipPath
     id="t">
    <path
       d="M30,15 h30 v15 z v15 h-30 z h-30 v-15 z v-15 h30 z"
       id="path5" />
  </clipPath>
  <path
     style="fill:#00247d"
     inkscape:connector-curvature="0"
     d="M 0,0 V 15 H 60 V 0 z"
     id="path7" />
  <rect
     height="15"
     id="rect669"
     style="font-size:12px;fill:#00ab39;fill-opacity:1;fill-rule:evenodd;stroke-width:1pt"
     width="60"
     x="0"
     y="15" />
  <path
     style="stroke:#ffffff;stroke-width:6"
     inkscape:connector-curvature="0"
     d="M 0,0 60,30 M 60,0 0,30"
     id="path9" />
  <path
     d="M 0,0 60,30 M 60,0 0,30"
     clip-path="url(#t-0)"
     id="path11"
     inkscape:connector-curvature="0"
     style="stroke:#cf142b;stroke-width:4" />
  <path
     d="M 30.000001,0 V 30 M 0,15 h 60"
     id="path13"
     inkscape:connector-curvature="0"
     style="stroke:#ffffff;stroke-width:10" />
  <path
     d="M 30,0 V 30 M 0,15 h 60"
     id="path15"
     inkscape:connector-curvature="0"
     style="stroke:#cf142b;stroke-width:6" />
</svg>
